<?xml version="1.0" standalone="no"?><!DOCTYPE svg PUBLIC "-//W3C//DTD SVG 1.1//EN" "http://www.w3.org/Graphics/SVG/1.1/DTD/svg11.dtd"><svg t="1593574511726" class="icon" viewBox="0 0 1032 1024" version="1.1" xmlns="http://www.w3.org/2000/svg" p-id="3236" xmlns:xlink="http://www.w3.org/1999/xlink" width="201.5625" height="200"><defs><style type="text/css"></style></defs><path d="M514.652245 494.68413L85.929879 18.575586A47.896805 47.896805 0 1 0 14.748486 82.608203l455.989843 506.541908a47.79468 47.79468 0 0 0 43.913916 26.246224 47.692555 47.692555 0 0 0 43.913915-26.348349L1014.453878 82.608203a47.896805 47.896805 0 0 0-71.079267-64.032617L514.652245 494.68413z" p-id="3237" fill="#ffffff"></path><path d="M514.652245 903.18567L85.929879 427.077126a47.896805 47.896805 0 1 0-71.181393 64.032616l455.989843 506.541909a47.79468 47.79468 0 0 0 43.913916 26.246224 47.692555 47.692555 0 0 0 43.913915-26.34835l455.887718-506.439783a47.896805 47.896805 0 1 0-71.079267-64.032616L514.652245 903.18567z" p-id="3238" fill="#ffffff"></path></svg>